<svg xmlns="http://www.w3.org/2000/svg" xmlns:xlink="http://www.w3.org/1999/xlink" viewBox="0,0,256,256" width="48px" height="48px"><g fill="none" fill-rule="nonzero" stroke="#dfe9f6" stroke-width="3" stroke-linecap="round" stroke-linejoin="round" stroke-miterlimit="10" stroke-dasharray="" stroke-dashoffset="0" font-family="none" font-weight="none" font-size="none" text-anchor="none" style="mix-blend-mode: normal"><g transform="scale(5.33333,5.33333)"><path d="M11.7,28.5l-3.7,3.7c-0.8,0.8 -0.8,2 0,2.8l5,5c0.8,0.8 2,0.8 2.8,0l8.2,-8.2l8.2,8.2c0.8,0.8 2,0.8 2.8,0l5,-5c0.8,-0.8 0.8,-2 0,-2.8l-8.2,-8.2l8.2,-8.2c0.8,-0.8 0.8,-2 0,-2.8l-2.6,-2.6"></path><path d="M33.1,7.1l-9.1,9.1l-8.2,-8.2c-0.8,-0.8 -2,-0.8 -2.8,0l-5,5c-0.8,0.8 -0.8,2 0,2.8l8.2,8.2"></path></g></g></svg>